# xmcd CD database file
#
# Track frame offsets:
#	182
#	14925
#	27192
#	41930
#	55327
#	71267
#	86390
#	103037
#	117245
#	130817
#	143642
#	158315
#	171787
#	184050
#	197392
#	210925
#	223950
#	239280
#	252090
#	265352
#	279452
#	294282
#	309370
#
# Disc length: 4323 seconds
#
# Revision: 3
# Processed by: cddbd v1.5.2PL0 Copyright (c) Steve Scherf et al.
# Submitted via: CDex 1.51
#
DISCID=4510e117
DTITLE=Duke Ellington - Vol. 048 - The Jimmy Blanton Era (1939-1941)
DYEAR=1988
DGENRE=Jazz
TTITLE0=In A Mellotone
TTITLE1=Ko-Ko
TTITLE2=Jack The Bear
TTITLE3=Harlem Air Shaft
TTITLE4=Just A-Settin' and A-Rockin'
TTITLE5=Sepia Panorama
TTITLE6=Jumpin' Punkins
TTITLE7=Mr. J.B. Blues
TTITLE8=Body And Soul
TTITLE9=Bojangles
TTITLE10=The Sidewalks Of New York
TTITLE11=Pitter Panther Patter
TTITLE12=Sophisticated Lady
TTITLE13=Across The Track Blues
TTITLE14=Plucked Again
TTITLE15=Blues
TTITLE16=Chloe
TTITLE17=C Blues
TTITLE18=Weely
TTITLE19=Junior Hop
TTITLE20=Dusk
TTITLE21=Blue Serge
TTITLE22=Morning Glory
EXTD=YEAR: 1988
EXTT0=
EXTT1=
EXTT2=
EXTT3=
EXTT4=
EXTT5=
EXTT6=
EXTT7=
EXTT8=
EXTT9=
EXTT10=
EXTT11=
EXTT12=
EXTT13=
EXTT14=
EXTT15=
EXTT16=
EXTT17=
EXTT18=
EXTT19=
EXTT20=
EXTT21=
EXTT22=
PLAYORDER=
